<mxfile host="app.diagrams.net" agent="Mozilla/5.0 (Windows NT 10.0; Win64; x64) AppleWebKit/537.36 (KHTML, like Gecko) Chrome/128.0.0.0 Safari/537.36" version="24.7.13">
  <diagram id="C5RBs43oDa-KdzZeNtuy" name="Page-1">
    <mxGraphModel dx="989" dy="542" grid="1" gridSize="10" guides="1" tooltips="1" connect="1" arrows="1" fold="1" page="1" pageScale="1" pageWidth="827" pageHeight="1169" math="0" shadow="0">
      <root>
        <mxCell id="WIyWlLk6GJQsqaUBKTNV-0" />
        <mxCell id="WIyWlLk6GJQsqaUBKTNV-1" parent="WIyWlLk6GJQsqaUBKTNV-0" />
        <mxCell id="zkfFHV4jXpPFQw0GAbJ--0" value="Conductor" style="swimlane;fontStyle=2;align=center;verticalAlign=top;childLayout=stackLayout;horizontal=1;startSize=26;horizontalStack=0;resizeParent=1;resizeLast=0;collapsible=1;marginBottom=0;rounded=0;shadow=0;strokeWidth=1;" parent="WIyWlLk6GJQsqaUBKTNV-1" vertex="1">
          <mxGeometry x="330" y="420" width="160" height="138" as="geometry">
            <mxRectangle x="230" y="140" width="160" height="26" as="alternateBounds" />
          </mxGeometry>
        </mxCell>
        <mxCell id="zkfFHV4jXpPFQw0GAbJ--1" value="- Nombre: string" style="text;align=left;verticalAlign=top;spacingLeft=4;spacingRight=4;overflow=hidden;rotatable=0;points=[[0,0.5],[1,0.5]];portConstraint=eastwest;" parent="zkfFHV4jXpPFQw0GAbJ--0" vertex="1">
          <mxGeometry y="26" width="160" height="26" as="geometry" />
        </mxCell>
        <mxCell id="soqMA0Cx7NW8u2eyrrt1-4" value="- Licencia: string" style="text;align=left;verticalAlign=top;spacingLeft=4;spacingRight=4;overflow=hidden;rotatable=0;points=[[0,0.5],[1,0.5]];portConstraint=eastwest;" parent="zkfFHV4jXpPFQw0GAbJ--0" vertex="1">
          <mxGeometry y="52" width="160" height="26" as="geometry" />
        </mxCell>
        <mxCell id="soqMA0Cx7NW8u2eyrrt1-5" value="- IsDisponible: bool" style="text;align=left;verticalAlign=top;spacingLeft=4;spacingRight=4;overflow=hidden;rotatable=0;points=[[0,0.5],[1,0.5]];portConstraint=eastwest;" parent="zkfFHV4jXpPFQw0GAbJ--0" vertex="1">
          <mxGeometry y="78" width="160" height="26" as="geometry" />
        </mxCell>
        <mxCell id="zkfFHV4jXpPFQw0GAbJ--4" value="" style="line;html=1;strokeWidth=1;align=left;verticalAlign=middle;spacingTop=-1;spacingLeft=3;spacingRight=3;rotatable=0;labelPosition=right;points=[];portConstraint=eastwest;" parent="zkfFHV4jXpPFQw0GAbJ--0" vertex="1">
          <mxGeometry y="104" width="160" height="8" as="geometry" />
        </mxCell>
        <mxCell id="zkfFHV4jXpPFQw0GAbJ--5" value="+ CambiarEstado(): void" style="text;align=left;verticalAlign=top;spacingLeft=4;spacingRight=4;overflow=hidden;rotatable=0;points=[[0,0.5],[1,0.5]];portConstraint=eastwest;" parent="zkfFHV4jXpPFQw0GAbJ--0" vertex="1">
          <mxGeometry y="112" width="160" height="26" as="geometry" />
        </mxCell>
        <mxCell id="soqMA0Cx7NW8u2eyrrt1-0" value="Pasajero" style="swimlane;fontStyle=2;align=center;verticalAlign=top;childLayout=stackLayout;horizontal=1;startSize=26;horizontalStack=0;resizeParent=1;resizeLast=0;collapsible=1;marginBottom=0;rounded=0;shadow=0;strokeWidth=1;" parent="WIyWlLk6GJQsqaUBKTNV-1" vertex="1">
          <mxGeometry x="80" y="163" width="310" height="164" as="geometry">
            <mxRectangle x="230" y="140" width="160" height="26" as="alternateBounds" />
          </mxGeometry>
        </mxCell>
        <mxCell id="soqMA0Cx7NW8u2eyrrt1-6" value="- Nombre: string" style="text;align=left;verticalAlign=top;spacingLeft=4;spacingRight=4;overflow=hidden;rotatable=0;points=[[0,0.5],[1,0.5]];portConstraint=eastwest;" parent="soqMA0Cx7NW8u2eyrrt1-0" vertex="1">
          <mxGeometry y="26" width="310" height="26" as="geometry" />
        </mxCell>
        <mxCell id="soqMA0Cx7NW8u2eyrrt1-7" value="- Direccion: string" style="text;align=left;verticalAlign=top;spacingLeft=4;spacingRight=4;overflow=hidden;rotatable=0;points=[[0,0.5],[1,0.5]];portConstraint=eastwest;" parent="soqMA0Cx7NW8u2eyrrt1-0" vertex="1">
          <mxGeometry y="52" width="310" height="26" as="geometry" />
        </mxCell>
        <mxCell id="soqMA0Cx7NW8u2eyrrt1-8" value="- IsMiembro: bool" style="text;align=left;verticalAlign=top;spacingLeft=4;spacingRight=4;overflow=hidden;rotatable=0;points=[[0,0.5],[1,0.5]];portConstraint=eastwest;" parent="soqMA0Cx7NW8u2eyrrt1-0" vertex="1">
          <mxGeometry y="78" width="310" height="26" as="geometry" />
        </mxCell>
        <mxCell id="soqMA0Cx7NW8u2eyrrt1-12" value="- Conductor: Conductor" style="text;align=left;verticalAlign=top;spacingLeft=4;spacingRight=4;overflow=hidden;rotatable=0;points=[[0,0.5],[1,0.5]];portConstraint=eastwest;" parent="soqMA0Cx7NW8u2eyrrt1-0" vertex="1">
          <mxGeometry y="104" width="310" height="26" as="geometry" />
        </mxCell>
        <mxCell id="soqMA0Cx7NW8u2eyrrt1-2" value="" style="line;html=1;strokeWidth=1;align=left;verticalAlign=middle;spacingTop=-1;spacingLeft=3;spacingRight=3;rotatable=0;labelPosition=right;points=[];portConstraint=eastwest;" parent="soqMA0Cx7NW8u2eyrrt1-0" vertex="1">
          <mxGeometry y="130" width="310" height="8" as="geometry" />
        </mxCell>
        <mxCell id="soqMA0Cx7NW8u2eyrrt1-3" value="+ SolicitarViaje(viaje: Viaje, conductor: Conductor): void" style="text;align=left;verticalAlign=top;spacingLeft=4;spacingRight=4;overflow=hidden;rotatable=0;points=[[0,0.5],[1,0.5]];portConstraint=eastwest;" parent="soqMA0Cx7NW8u2eyrrt1-0" vertex="1">
          <mxGeometry y="138" width="310" height="26" as="geometry" />
        </mxCell>
        <mxCell id="soqMA0Cx7NW8u2eyrrt1-9" value="Viaje" style="swimlane;fontStyle=2;align=center;verticalAlign=top;childLayout=stackLayout;horizontal=1;startSize=26;horizontalStack=0;resizeParent=1;resizeLast=0;collapsible=1;marginBottom=0;rounded=0;shadow=0;strokeWidth=1;" parent="WIyWlLk6GJQsqaUBKTNV-1" vertex="1">
          <mxGeometry x="530" y="150" width="160" height="190" as="geometry">
            <mxRectangle x="230" y="140" width="160" height="26" as="alternateBounds" />
          </mxGeometry>
        </mxCell>
        <mxCell id="soqMA0Cx7NW8u2eyrrt1-16" value="- Pasajero: Pasajero" style="text;align=left;verticalAlign=top;spacingLeft=4;spacingRight=4;overflow=hidden;rotatable=0;points=[[0,0.5],[1,0.5]];portConstraint=eastwest;" parent="soqMA0Cx7NW8u2eyrrt1-9" vertex="1">
          <mxGeometry y="26" width="160" height="26" as="geometry" />
        </mxCell>
        <mxCell id="soqMA0Cx7NW8u2eyrrt1-11" value="- TipoVehiculo: TipoVehiculo" style="text;align=left;verticalAlign=top;spacingLeft=4;spacingRight=4;overflow=hidden;rotatable=0;points=[[0,0.5],[1,0.5]];portConstraint=eastwest;" parent="soqMA0Cx7NW8u2eyrrt1-9" vertex="1">
          <mxGeometry y="52" width="160" height="26" as="geometry" />
        </mxCell>
        <mxCell id="soqMA0Cx7NW8u2eyrrt1-10" value="- Distancia: double" style="text;align=left;verticalAlign=top;spacingLeft=4;spacingRight=4;overflow=hidden;rotatable=0;points=[[0,0.5],[1,0.5]];portConstraint=eastwest;" parent="soqMA0Cx7NW8u2eyrrt1-9" vertex="1">
          <mxGeometry y="78" width="160" height="26" as="geometry" />
        </mxCell>
        <mxCell id="soqMA0Cx7NW8u2eyrrt1-33" value="- / Precio: double" style="text;align=left;verticalAlign=top;spacingLeft=4;spacingRight=4;overflow=hidden;rotatable=0;points=[[0,0.5],[1,0.5]];portConstraint=eastwest;" parent="soqMA0Cx7NW8u2eyrrt1-9" vertex="1">
          <mxGeometry y="104" width="160" height="26" as="geometry" />
        </mxCell>
        <mxCell id="soqMA0Cx7NW8u2eyrrt1-13" value="" style="line;html=1;strokeWidth=1;align=left;verticalAlign=middle;spacingTop=-1;spacingLeft=3;spacingRight=3;rotatable=0;labelPosition=right;points=[];portConstraint=eastwest;" parent="soqMA0Cx7NW8u2eyrrt1-9" vertex="1">
          <mxGeometry y="130" width="160" height="8" as="geometry" />
        </mxCell>
        <mxCell id="soqMA0Cx7NW8u2eyrrt1-25" value="+ MostrarDetalles(): void" style="text;align=left;verticalAlign=top;spacingLeft=4;spacingRight=4;overflow=hidden;rotatable=0;points=[[0,0.5],[1,0.5]];portConstraint=eastwest;" parent="soqMA0Cx7NW8u2eyrrt1-9" vertex="1">
          <mxGeometry y="138" width="160" height="26" as="geometry" />
        </mxCell>
        <mxCell id="soqMA0Cx7NW8u2eyrrt1-32" value="+ TerminarViaje(): void" style="text;align=left;verticalAlign=top;spacingLeft=4;spacingRight=4;overflow=hidden;rotatable=0;points=[[0,0.5],[1,0.5]];portConstraint=eastwest;" parent="soqMA0Cx7NW8u2eyrrt1-9" vertex="1">
          <mxGeometry y="164" width="160" height="26" as="geometry" />
        </mxCell>
        <mxCell id="soqMA0Cx7NW8u2eyrrt1-17" value="&lt;&lt;enumeration&gt;&gt;&#xa;TipoVehiculo" style="swimlane;fontStyle=2;align=center;verticalAlign=top;childLayout=stackLayout;horizontal=1;startSize=40;horizontalStack=0;resizeParent=1;resizeLast=0;collapsible=1;marginBottom=0;rounded=0;shadow=0;strokeWidth=1;" parent="WIyWlLk6GJQsqaUBKTNV-1" vertex="1">
          <mxGeometry x="80" y="458" width="130" height="100" as="geometry">
            <mxRectangle x="230" y="140" width="160" height="26" as="alternateBounds" />
          </mxGeometry>
        </mxCell>
        <mxCell id="soqMA0Cx7NW8u2eyrrt1-23" value="Estandar&#xa;" style="text;align=left;verticalAlign=top;spacingLeft=4;spacingRight=4;overflow=hidden;rotatable=0;points=[[0,0.5],[1,0.5]];portConstraint=eastwest;" parent="soqMA0Cx7NW8u2eyrrt1-17" vertex="1">
          <mxGeometry y="40" width="130" height="26" as="geometry" />
        </mxCell>
        <mxCell id="soqMA0Cx7NW8u2eyrrt1-24" value="Van" style="text;align=left;verticalAlign=top;spacingLeft=4;spacingRight=4;overflow=hidden;rotatable=0;points=[[0,0.5],[1,0.5]];portConstraint=eastwest;" parent="soqMA0Cx7NW8u2eyrrt1-17" vertex="1">
          <mxGeometry y="66" width="130" height="26" as="geometry" />
        </mxCell>
        <mxCell id="soqMA0Cx7NW8u2eyrrt1-21" value="" style="line;html=1;strokeWidth=1;align=left;verticalAlign=middle;spacingTop=-1;spacingLeft=3;spacingRight=3;rotatable=0;labelPosition=right;points=[];portConstraint=eastwest;" parent="soqMA0Cx7NW8u2eyrrt1-17" vertex="1">
          <mxGeometry y="92" width="130" height="8" as="geometry" />
        </mxCell>
        <mxCell id="soqMA0Cx7NW8u2eyrrt1-26" value="" style="endArrow=diamondThin;html=1;rounded=0;endFill=0;endSize=20;startArrow=none;startFill=0;startSize=20;" parent="WIyWlLk6GJQsqaUBKTNV-1" source="soqMA0Cx7NW8u2eyrrt1-0" target="soqMA0Cx7NW8u2eyrrt1-9" edge="1">
          <mxGeometry width="50" height="50" relative="1" as="geometry">
            <mxPoint x="330" y="304" as="sourcePoint" />
            <mxPoint x="380" y="254" as="targetPoint" />
          </mxGeometry>
        </mxCell>
        <mxCell id="soqMA0Cx7NW8u2eyrrt1-28" value="1" style="edgeLabel;html=1;align=center;verticalAlign=middle;resizable=0;points=[];" parent="soqMA0Cx7NW8u2eyrrt1-26" vertex="1" connectable="0">
          <mxGeometry x="-0.6364" relative="1" as="geometry">
            <mxPoint x="-10" y="-15" as="offset" />
          </mxGeometry>
        </mxCell>
        <mxCell id="soqMA0Cx7NW8u2eyrrt1-29" value="0...1" style="edgeLabel;html=1;align=center;verticalAlign=middle;resizable=0;points=[];" parent="soqMA0Cx7NW8u2eyrrt1-26" vertex="1" connectable="0">
          <mxGeometry x="0.5212" y="-1" relative="1" as="geometry">
            <mxPoint x="-3" y="-16" as="offset" />
          </mxGeometry>
        </mxCell>
        <mxCell id="soqMA0Cx7NW8u2eyrrt1-27" value="" style="endArrow=diamondThin;html=1;rounded=0;startArrow=none;startFill=0;startSize=20;endFill=0;endSize=20;" parent="WIyWlLk6GJQsqaUBKTNV-1" source="zkfFHV4jXpPFQw0GAbJ--0" target="soqMA0Cx7NW8u2eyrrt1-0" edge="1">
          <mxGeometry width="50" height="50" relative="1" as="geometry">
            <mxPoint x="320" y="384" as="sourcePoint" />
            <mxPoint x="370" y="334" as="targetPoint" />
          </mxGeometry>
        </mxCell>
        <mxCell id="soqMA0Cx7NW8u2eyrrt1-30" value="0...1" style="edgeLabel;html=1;align=center;verticalAlign=middle;resizable=0;points=[];" parent="soqMA0Cx7NW8u2eyrrt1-27" vertex="1" connectable="0">
          <mxGeometry x="-0.7417" y="-4" relative="1" as="geometry">
            <mxPoint x="12" as="offset" />
          </mxGeometry>
        </mxCell>
        <mxCell id="soqMA0Cx7NW8u2eyrrt1-31" value="0...1" style="edgeLabel;html=1;align=center;verticalAlign=middle;resizable=0;points=[];" parent="soqMA0Cx7NW8u2eyrrt1-27" vertex="1" connectable="0">
          <mxGeometry x="0.7167" relative="1" as="geometry">
            <mxPoint x="25" as="offset" />
          </mxGeometry>
        </mxCell>
        <mxCell id="eM4-9FvJVmrRQYpB6CUT-1" value="" style="endArrow=none;html=1;rounded=0;endFill=0;endSize=20;" edge="1" parent="WIyWlLk6GJQsqaUBKTNV-1" source="zkfFHV4jXpPFQw0GAbJ--0" target="soqMA0Cx7NW8u2eyrrt1-9">
          <mxGeometry width="50" height="50" relative="1" as="geometry">
            <mxPoint x="330" y="354" as="sourcePoint" />
            <mxPoint x="380" y="304" as="targetPoint" />
          </mxGeometry>
        </mxCell>
        <mxCell id="eM4-9FvJVmrRQYpB6CUT-2" value="0...1" style="edgeLabel;html=1;align=center;verticalAlign=middle;resizable=0;points=[];" vertex="1" connectable="0" parent="eM4-9FvJVmrRQYpB6CUT-1">
          <mxGeometry x="0.6513" relative="1" as="geometry">
            <mxPoint x="21" y="7" as="offset" />
          </mxGeometry>
        </mxCell>
        <mxCell id="eM4-9FvJVmrRQYpB6CUT-3" value="1" style="edgeLabel;html=1;align=center;verticalAlign=middle;resizable=0;points=[];" vertex="1" connectable="0" parent="eM4-9FvJVmrRQYpB6CUT-1">
          <mxGeometry x="-0.5138" y="-1" relative="1" as="geometry">
            <mxPoint x="17" as="offset" />
          </mxGeometry>
        </mxCell>
      </root>
    </mxGraphModel>
  </diagram>
</mxfile>
